<?xml version="1.0" encoding="UTF-8" standalone="no"?><!DOCTYPE svg PUBLIC "-//W3C//DTD SVG 1.1//EN" "http://www.w3.org/Graphics/SVG/1.1/DTD/svg11.dtd"><svg width="100%" height="100%" viewBox="0 0 184 41" version="1.1" xmlns="http://www.w3.org/2000/svg" xmlns:xlink="http://www.w3.org/1999/xlink" xml:space="preserve" xmlns:serif="http://www.serif.com/" style="fill-rule:evenodd;clip-rule:evenodd;stroke-linejoin:round;stroke-miterlimit:2;"><g id="epicllet"><path d="M8.929,16.346c-3.925,1.908 -7.698,7.591 -8.487,16.677c0,0 -0.182,-1.133 -0.292,-3.502c-0.677,-14.575 10.37,-29.521 24.718,-29.521l0.03,0.001l0,-0.001c0.47,0 0.936,0.018 1.398,0.053l0.003,0c9.751,0.739 17.547,9.124 17.548,19.216c-0.001,10.571 -11.428,20.73 -21.823,20.731l2.874,-4.491c-13.417,0.032 -18.193,-10.952 -15.969,-19.163Zm15.969,15.046c6.58,0 11.921,-5.432 11.921,-12.123c0,-6.691 -5.341,-12.123 -11.921,-12.123c-6.579,0 -11.92,5.433 -11.92,12.123c0,6.691 5.341,12.123 11.92,12.123Z" style="fill:#fff;"/><g><path d="M76.666,14.695c-1.178,-1.1 -2.569,-1.755 -4.176,-1.964c-2.013,-0.264 -3.812,0.242 -5.397,1.519c-1.573,1.265 -2.448,2.915 -2.624,4.951c-0.121,1.584 0.215,3.086 1.007,4.505l11.19,-9.011Zm2.591,6.519l2.211,0.033c-0.055,0.528 -0.159,1.056 -0.313,1.585c-0.561,1.958 -1.64,3.581 -3.235,4.868c-2.091,1.684 -4.451,2.382 -7.08,2.096c-2.63,-0.286 -4.792,-1.485 -6.486,-3.598c-1.706,-2.123 -2.418,-4.497 -2.138,-7.121c0.281,-2.624 1.472,-4.778 3.574,-6.461c2.101,-1.695 4.464,-2.396 7.088,-2.105c2.624,0.292 4.789,1.494 6.494,3.607c0.187,0.231 0.358,0.473 0.512,0.726l-13.071,10.529c1.21,1.243 2.684,1.975 4.423,2.195c2.024,0.253 3.834,-0.264 5.43,-1.551c1.144,-0.913 1.914,-2.003 2.31,-3.268c0.154,-0.495 0.248,-1.007 0.281,-1.535Z" style="fill:#fff;fill-rule:nonzero;"/><path d="M85.71,19.976c0,-1.342 0.261,-2.602 0.784,-3.779c0.522,-1.177 1.235,-2.206 2.137,-3.086c0.902,-0.88 1.953,-1.574 3.152,-2.08c1.199,-0.506 2.476,-0.759 3.829,-0.759c2.762,0 5.061,0.935 6.899,2.806c1.848,1.87 2.772,4.164 2.772,6.882c0,2.718 -0.924,5.006 -2.772,6.866c-1.838,1.87 -4.099,2.805 -6.783,2.805c-2.795,0 -5.117,-0.941 -6.965,-2.822l-0.677,-0.759l0,9.655l-2.376,0l0,-15.729Zm9.737,7.559c2.102,0 3.867,-0.731 5.298,-2.195c1.441,-1.474 2.162,-3.279 2.162,-5.413c0,-2.135 -0.721,-3.939 -2.162,-5.413c-1.442,-1.475 -3.207,-2.212 -5.298,-2.212c-2.09,0 -3.856,0.737 -5.298,2.212c-1.441,1.474 -2.162,3.273 -2.162,5.396l0.017,0c0,2.135 0.72,3.939 2.162,5.414c1.441,1.474 3.202,2.211 5.281,2.211Z" style="fill:#fff;fill-rule:nonzero;"/><path d="M109.772,29.219l0,-18.501l2.377,0l0,18.501l-2.377,0Zm0.017,-23.106l2.344,0l0,2.344l-2.344,0l0,-2.344Z" style="fill:#fff;fill-rule:nonzero;"/><path d="M130.749,26.083l1.7,1.452c-0.264,0.209 -0.539,0.402 -0.825,0.578c-1.607,1.023 -3.422,1.535 -5.447,1.535c-2.805,0 -5.179,-0.936 -7.121,-2.806c-1.942,-1.87 -2.913,-4.159 -2.913,-6.866c0,-2.717 0.971,-5.011 2.913,-6.882c1.942,-1.87 4.316,-2.805 7.121,-2.805c2.003,0 3.807,0.528 5.414,1.584c0.286,0.187 0.555,0.391 0.808,0.611l-1.667,1.485c-0.253,-0.198 -0.522,-0.38 -0.808,-0.545c-1.156,-0.693 -2.404,-1.039 -3.747,-1.039c-2.145,0 -3.958,0.734 -5.438,2.203c-1.48,1.469 -2.219,3.265 -2.219,5.388c0,2.124 0.739,3.917 2.219,5.381c1.48,1.463 3.293,2.195 5.438,2.195c1.376,0 2.641,-0.325 3.796,-0.974c0.275,-0.154 0.534,-0.319 0.776,-0.495Z" style="fill:#fff;fill-rule:nonzero;"/><path d="M136.641,29.219l0,-25.004l2.376,0l0,25.004l-2.376,0Z" style="fill:#fff;fill-rule:nonzero;"/><path d="M143.952,29.219l0,-25.004l2.377,0l0,25.004l-2.377,0Z" style="fill:#fff;fill-rule:nonzero;"/><path d="M164.879,14.695c-1.177,-1.1 -2.569,-1.755 -4.175,-1.964c-2.014,-0.264 -3.813,0.242 -5.397,1.519c-1.574,1.265 -2.448,2.915 -2.624,4.951c-0.121,1.584 0.214,3.086 1.006,4.505l11.19,-9.011Zm2.591,6.519l2.212,0.033c-0.055,0.528 -0.16,1.056 -0.314,1.585c-0.561,1.958 -1.639,3.581 -3.235,4.868c-2.09,1.684 -4.45,2.382 -7.08,2.096c-2.63,-0.286 -4.792,-1.485 -6.486,-3.598c-1.705,-2.123 -2.418,-4.497 -2.137,-7.121c0.28,-2.624 1.471,-4.778 3.573,-6.461c2.101,-1.695 4.464,-2.396 7.088,-2.105c2.624,0.292 4.789,1.494 6.495,3.607c0.187,0.231 0.357,0.473 0.511,0.726l-13.071,10.529c1.21,1.243 2.685,1.975 4.423,2.195c2.025,0.253 3.835,-0.264 5.43,-1.551c1.144,-0.913 1.914,-2.003 2.311,-3.268c0.154,-0.495 0.247,-1.007 0.28,-1.535Z" style="fill:#fff;fill-rule:nonzero;"/><path d="M176.168,29.219l0,-16.372l-3.928,0l0,-2.129l3.928,0l0,-6.47l2.376,0l0,6.47l4.374,0l0,2.129l-4.374,0l0,16.372l-2.376,0Z" style="fill:#fff;fill-rule:nonzero;"/></g></g></svg>