<?xml version="1.0" encoding="UTF-8" standalone="no"?><!DOCTYPE svg PUBLIC "-//W3C//DTD SVG 1.1//EN" "http://www.w3.org/Graphics/SVG/1.1/DTD/svg11.dtd"><svg width="100%" height="100%" viewBox="0 0 138 49" version="1.1" xmlns="http://www.w3.org/2000/svg" xmlns:xlink="http://www.w3.org/1999/xlink" xml:space="preserve" xmlns:serif="http://www.serif.com/" style="fill-rule:evenodd;clip-rule:evenodd;stroke-linejoin:round;stroke-miterlimit:2;"><rect id="Logo-White-Label" serif:id="Logo White Label" x="0.144" y="0" width="136.84" height="48.189" style="fill:none;"/><g><path d="M22.692,18.83c-1.177,-1.101 -2.569,-1.755 -4.175,-1.964c-2.014,-0.264 -3.813,0.242 -5.397,1.518c-1.573,1.265 -2.448,2.916 -2.624,4.951c-0.121,1.585 0.214,3.087 1.007,4.506l11.189,-9.011Zm2.591,6.519l2.212,0.033c-0.055,0.528 -0.16,1.056 -0.314,1.584c-0.561,1.959 -1.639,3.582 -3.235,4.869c-2.09,1.683 -4.45,2.382 -7.08,2.096c-2.629,-0.286 -4.791,-1.486 -6.486,-3.598c-1.705,-2.124 -2.418,-4.497 -2.137,-7.121c0.281,-2.625 1.472,-4.778 3.573,-6.462c2.102,-1.694 4.464,-2.396 7.089,-2.104c2.624,0.292 4.788,1.494 6.494,3.606c0.187,0.231 0.357,0.473 0.511,0.726l-13.071,10.53c1.211,1.243 2.685,1.975 4.423,2.195c2.025,0.253 3.835,-0.264 5.43,-1.552c1.144,-0.913 1.915,-2.002 2.311,-3.267c0.154,-0.495 0.247,-1.007 0.28,-1.535Z" style="fill:#fff;fill-rule:nonzero;"/><path d="M31.736,24.111c0,-1.342 0.262,-2.602 0.784,-3.779c0.523,-1.178 1.235,-2.206 2.138,-3.087c0.902,-0.88 1.952,-1.573 3.152,-2.079c1.199,-0.506 2.475,-0.759 3.829,-0.759c2.761,0 5.061,0.935 6.898,2.805c1.849,1.871 2.773,4.165 2.773,6.882c0,2.718 -0.924,5.007 -2.773,6.866c-1.837,1.871 -4.098,2.806 -6.783,2.806c-2.794,0 -5.116,-0.941 -6.964,-2.822l-0.677,-0.76l0,9.655l-2.377,0l0,-15.728Zm9.738,7.559c2.101,0 3.867,-0.732 5.297,-2.195c1.442,-1.475 2.162,-3.279 2.162,-5.414c0,-2.134 -0.72,-3.938 -2.162,-5.413c-1.441,-1.474 -3.207,-2.211 -5.297,-2.211c-2.091,0 -3.857,0.737 -5.298,2.211c-1.441,1.475 -2.162,3.273 -2.162,5.397l0.016,0c0,2.134 0.721,3.939 2.162,5.413c1.442,1.475 3.202,2.212 5.282,2.212Z" style="fill:#fff;fill-rule:nonzero;"/><path d="M55.799,33.353l0,-18.501l2.377,0l0,18.501l-2.377,0Zm0.017,-23.105l2.343,0l0,2.343l-2.343,0l0,-2.343Z" style="fill:#fff;fill-rule:nonzero;"/><path d="M76.775,30.217l1.7,1.453c-0.264,0.209 -0.539,0.401 -0.825,0.577c-1.606,1.024 -3.422,1.535 -5.446,1.535c-2.806,0 -5.18,-0.935 -7.122,-2.805c-1.941,-1.871 -2.912,-4.159 -2.912,-6.866c0,-2.718 0.971,-5.012 2.912,-6.882c1.942,-1.871 4.316,-2.806 7.122,-2.806c2.002,0 3.807,0.528 5.413,1.585c0.286,0.187 0.556,0.39 0.809,0.61l-1.667,1.486c-0.253,-0.198 -0.523,-0.38 -0.809,-0.545c-1.155,-0.693 -2.404,-1.04 -3.746,-1.04c-2.146,0 -3.958,0.735 -5.438,2.203c-1.48,1.469 -2.22,3.265 -2.22,5.389c0,2.123 0.74,3.917 2.22,5.38c1.48,1.464 3.292,2.195 5.438,2.195c1.375,0 2.641,-0.324 3.796,-0.973c0.275,-0.154 0.533,-0.32 0.775,-0.496Z" style="fill:#fff;fill-rule:nonzero;"/><path d="M82.667,33.353l0,-25.003l2.377,0l0,25.003l-2.377,0Z" style="fill:#fff;fill-rule:nonzero;"/><path d="M89.979,33.353l0,-25.003l2.376,0l0,25.003l-2.376,0Z" style="fill:#fff;fill-rule:nonzero;"/><path d="M110.906,18.83c-1.178,-1.101 -2.57,-1.755 -4.176,-1.964c-2.013,-0.264 -3.812,0.242 -5.397,1.518c-1.573,1.265 -2.448,2.916 -2.624,4.951c-0.121,1.585 0.215,3.087 1.007,4.506l11.19,-9.011Zm2.591,6.519l2.211,0.033c-0.055,0.528 -0.159,1.056 -0.313,1.584c-0.562,1.959 -1.64,3.582 -3.235,4.869c-2.091,1.683 -4.451,2.382 -7.08,2.096c-2.63,-0.286 -4.792,-1.486 -6.486,-3.598c-1.706,-2.124 -2.418,-4.497 -2.138,-7.121c0.281,-2.625 1.472,-4.778 3.573,-6.462c2.102,-1.694 4.465,-2.396 7.089,-2.104c2.624,0.292 4.789,1.494 6.494,3.606c0.187,0.231 0.358,0.473 0.512,0.726l-13.071,10.53c1.21,1.243 2.684,1.975 4.423,2.195c2.024,0.253 3.834,-0.264 5.43,-1.552c1.144,-0.913 1.914,-2.002 2.31,-3.267c0.154,-0.495 0.248,-1.007 0.281,-1.535Z" style="fill:#fff;fill-rule:nonzero;"/><path d="M122.194,33.353l0,-16.372l-3.928,0l0,-2.129l3.928,0l0,-6.469l2.377,0l0,6.469l4.373,0l0,2.129l-4.373,0l0,16.372l-2.377,0Z" style="fill:#fff;fill-rule:nonzero;"/></g></svg>