<?xml version="1.0" encoding="UTF-8" standalone="no"?><!DOCTYPE svg PUBLIC "-//W3C//DTD SVG 1.1//EN" "http://www.w3.org/Graphics/SVG/1.1/DTD/svg11.dtd"><svg width="100%" height="100%" viewBox="0 0 49 49" version="1.1" xmlns="http://www.w3.org/2000/svg" xmlns:xlink="http://www.w3.org/1999/xlink" xml:space="preserve" xmlns:serif="http://www.serif.com/" style="fill-rule:evenodd;clip-rule:evenodd;stroke-linejoin:round;stroke-miterlimit:2;"><rect id="Logo-black-Header" serif:id="Logo black Header" x="0" y="0.064" width="48.189" height="48.189" style="fill:none;"/><path d="M11.04,20.504c-3.925,1.908 -7.698,7.591 -8.487,16.677c0,0 -0.182,-1.133 -0.292,-3.502c-0.677,-14.575 10.37,-29.521 24.718,-29.521l0.03,0.001l0,-0.001c0.47,0 0.936,0.018 1.398,0.053l0.003,0c9.751,0.739 17.547,9.124 17.548,19.216c-0.001,10.571 -11.428,20.73 -21.823,20.731l2.874,-4.491c-13.417,0.032 -18.193,-10.952 -15.969,-19.163Zm15.969,15.046c6.58,0 11.921,-5.432 11.921,-12.123c0,-6.691 -5.341,-12.123 -11.921,-12.123c-6.579,0 -11.92,5.433 -11.92,12.123c0,6.691 5.341,12.123 11.92,12.123Z" style="fill:#1a1a1a;"/></svg>